Adsworth-72PT G0 XT0.ufo
<glyph name="exclam" format="2">
  <advance width="312"/>
  <unicode hex="0021"/>
  <outline>
    <contour>
      <point x="169" y="292" type="line"/>
      <point x="169" y="1500" type="line"/>
      <point x="143" y="1500" type="line"/>
      <point x="143" y="292" type="line"/>
    </contour>
    <contour>
      <point x="157" y="3.0" type="line" smooth="yes"/>
      <point x="154.0" y="3.0"/>
      <point x="153.0" y="23.0"/>
      <point x="153" y="53.0" type="qcurve" smooth="yes"/>
      <point x="153" y="76.0" type="line" smooth="yes"/>
      <point x="153.0" y="110.0"/>
      <point x="156" y="127.0"/>
      <point x="157" y="127.0" type="qcurve" smooth="yes"/>
      <point x="157" y="127.0" type="line" smooth="yes"/>
      <point x="158" y="127.0"/>
      <point x="159.0" y="110.0"/>
      <point x="159.0" y="76.0" type="qcurve" smooth="yes"/>
      <point x="159.0" y="53.0" type="line" smooth="yes"/>
      <point x="159.0" y="19.0"/>
      <point x="158" y="3.0"/>
      <point x="157" y="3.0" type="qcurve" smooth="yes"/>
    </contour>
  </outline>
</glyph>
<glyph name="dollar" format="2">
  <advance width="681"/>
  <unicode hex="0024"/>
  <outline>
    <contour>
      <point x="623.0" y="360.0" type="line" smooth="yes"/>
      <point x="623.0" y="538.0"/>
      <point x="385" y="713"/>
      <point x="296" y="814" type="qcurve" smooth="yes"/>
      <point x="225" y="926"/>
      <point x="69" y="1108"/>
      <point x="69" y="1252" type="qcurve" smooth="yes"/>
      <point x="69" y="1280" type="line" smooth="yes"/>
      <point x="69" y="1417.0"/>
      <point x="234.0" y="1505.0"/>
      <point x="329" y="1505.0" type="qcurve" smooth="yes"/>
      <point x="343" y="1505.0" type="line" smooth="yes"/>
      <point x="439" y="1505"/>
      <point x="593.0" y="1406.0"/>
      <point x="593" y="1271.0" type="qcurve" smooth="yes"/>
      <point x="593" y="1115.0" type="line"/>
      <point x="612.0" y="1115.0" type="line"/>
      <point x="612.0" y="1254" type="line" smooth="yes"/>
      <point x="612.0" y="1404"/>
      <point x="468" y="1509"/>
      <point x="348.0" y="1509" type="qcurve" smooth="yes"/>
      <point x="327.0" y="1509" type="line" smooth="yes"/>
      <point x="212.0" y="1509.0"/>
      <point x="50.0" y="1385.0"/>
      <point x="50.0" y="1256" type="qcurve" smooth="yes"/>
      <point x="50.0" y="1147" type="line" smooth="yes"/>
      <point x="50" y="1027"/>
      <point x="258" y="885"/>
      <point x="330" y="808" type="qcurve" smooth="yes"/>
      <point x="394" y="724"/>
      <point x="598.0" y="502.0"/>
      <point x="598.0" y="328.0" type="qcurve" smooth="yes"/>
      <point x="598.0" y="322.0" type="line" smooth="yes"/>
      <point x="598.0" y="167.0"/>
      <point x="438" y="-7.0"/>
      <point x="335" y="-7.0" type="qcurve" smooth="yes"/>
      <point x="322" y="-7.0" type="line" smooth="yes"/>
      <point x="223.0" y="-7"/>
      <point x="63" y="164.0"/>
      <point x="63" y="321.0" type="qcurve" smooth="yes"/>
      <point x="63" y="434.0" type="line"/>
      <point x="23.0" y="434.0" type="line"/>
      <point x="23.0" y="262" type="line" smooth="yes"/>
      <point x="23.0" y="138.0"/>
      <point x="181" y="-32"/>
      <point x="324.0" y="-32" type="qcurve" smooth="yes"/>
      <point x="343.0" y="-32" type="line" smooth="yes"/>
      <point x="480.0" y="-32.0"/>
      <point x="623.0" y="200.0"/>
      <point x="623.0" y="332" type="qcurve" smooth="yes"/>
    </contour>
    <contour>
      <point x="395.0" y="-100.0" type="line"/>
      <point x="395.0" y="803.0" type="line"/>
      <point x="300.0" y="803.0" type="line"/>
      <point x="300.0" y="-100.0" type="line"/>
    </contour>
    <contour>
      <point x="376.0" y="812.0" type="line"/>
      <point x="376.0" y="1593.0" type="line"/>
      <point x="281.0" y="1593.0" type="line"/>
      <point x="281.0" y="812.0" type="line"/>
    </contour>
  </outline>
</glyph>
<glyph name="ampersand" format="2">
  <advance width="840"/>
  <unicode hex="0026"/>
  <outline>
    <contour>
      <point x="453" y="472" type="line"/>
      <point x="888" y="603" type="line"/>
      <point x="874" y="625" type="line"/>
      <point x="439" y="494" type="line"/>
    </contour>
    <contour>
      <point x="498" y="806" type="line"/>
      <point x="323" y="806" type="line" smooth="yes"/>
      <point x="210" y="806"/>
      <point x="17" y="657"/>
      <point x="17.0" y="447" type="qcurve" smooth="yes"/>
      <point x="17.0" y="396" type="line" smooth="yes"/>
      <point x="17" y="160.0"/>
      <point x="212.0" y="-23.0"/>
      <point x="374.0" y="-23.0" type="qcurve" smooth="yes"/>
      <point x="402.0" y="-23.0" type="line" smooth="yes"/>
      <point x="611.0" y="-23.0"/>
      <point x="804.0" y="218"/>
      <point x="804.0" y="401" type="qcurve" smooth="yes"/>
      <point x="804.0" y="417" type="line" smooth="yes"/>
      <point x="804.0" y="472"/>
      <point x="768" y="562"/>
      <point x="745" y="603" type="qcurve"/>
      <point x="706" y="611" type="line"/>
      <point x="733" y="573"/>
      <point x="771" y="474"/>
      <point x="771" y="431" type="qcurve" smooth="yes"/>
      <point x="771" y="401" type="line" smooth="yes"/>
      <point x="771" y="212"/>
      <point x="554" y="-20"/>
      <point x="436" y="-22" type="qcurve" smooth="yes"/>
      <point x="407" y="-22" type="line" smooth="yes"/>
      <point x="238" y="-20"/>
      <point x="42" y="194"/>
      <point x="42" y="403" type="qcurve" smooth="yes"/>
      <point x="42" y="472" type="line" smooth="yes"/>
      <point x="42" y="651.0"/>
      <point x="207.0" y="792.0"/>
      <point x="349" y="794" type="qcurve"/>
      <point x="215.0" y="798.0"/>
      <point x="90.0" y="929.0"/>
      <point x="90" y="1049" type="qcurve" smooth="yes"/>
      <point x="90" y="1207" type="line" smooth="yes"/>
      <point x="90" y="1339"/>
      <point x="242" y="1512"/>
      <point x="354" y="1512" type="qcurve" smooth="yes"/>
      <point x="400" y="1512" type="line" smooth="yes"/>
      <point x="507" y="1512"/>
      <point x="623" y="1379"/>
      <point x="640" y="1260" type="qcurve" smooth="yes"/>
      <point x="640" y="1110" type="line"/>
      <point x="662.0" y="1107" type="line"/>
      <point x="662.0" y="1237" type="line" smooth="yes"/>
      <point x="662.0" y="1371"/>
      <point x="509.0" y="1535.0"/>
      <point x="374.0" y="1535.0" type="qcurve" smooth="yes"/>
      <point x="349.0" y="1535.0" type="line" smooth="yes"/>
      <point x="219.0" y="1535.0"/>
      <point x="70.0" y="1356.0"/>
      <point x="70.0" y="1191" type="qcurve" smooth="yes"/>
      <point x="70" y="1073" type="line" smooth="yes"/>
      <point x="70" y="901.0"/>
      <point x="257.0" y="786.0"/>
      <point x="399" y="785" type="qcurve" smooth="yes"/>
      <point x="498" y="785" type="line"/>
    </contour>
  </outline>
</glyph>
<glyph name="parenright" format="2">
  <advance width="324"/>
  <unicode hex="0029"/>
  <outline>
    <contour>
      <point x="-43" y="-311" type="qcurve"/>
      <point x="18" y="-291" type="line"/>
      <point x="268" y="136"/>
      <point x="256" y="1078"/>
      <point x="23" y="1505" type="qcurve"/>
      <point x="-38" y="1525" type="line"/>
      <point x="199" y="1090"/>
      <point x="199" y="110"/>
    </contour>
  </outline>
</glyph>
<glyph name="comma" format="2">
  <advance width="430"/>
  <unicode hex="002C"/>
  <outline>
    <contour>
      <point x="139" y="-145" type="line"/>
      <point x="215" y="57" type="line" smooth="yes"/>
      <point x="226" y="88"/>
      <point x="253.0" y="148.0"/>
      <point x="262" y="148" type="qcurve" smooth="yes"/>
      <point x="264" y="148.0" type="line" smooth="yes"/>
      <point x="257.0" y="148.0"/>
      <point x="258.0" y="131.0"/>
      <point x="231" y="81.0" type="qcurve" smooth="yes"/>
      <point x="226" y="78" type="line" smooth="yes"/>
      <point x="209" y="46"/>
      <point x="129" y="-65"/>
      <point x="127" y="-127" type="qcurve"/>
    </contour>
  </outline>
</glyph>
<glyph name="zero" format="2">
  <advance width="638"/>
  <unicode hex="0030"/>
  <outline>
    <contour>
      <point x="301" y="-15.0" type="line" smooth="yes"/>
      <point x="173.0" y="-15"/>
      <point x="85" y="165.0"/>
      <point x="85" y="353.0" type="qcurve" smooth="yes"/>
      <point x="85" y="1137.0" type="line" smooth="yes"/>
      <point x="85" y="1331.0"/>
      <point x="188.0" y="1504.0"/>
      <point x="300" y="1504.0" type="qcurve" smooth="yes"/>
      <point x="338" y="1504.0" type="line" smooth="yes"/>
      <point x="447.0" y="1504.0"/>
      <point x="553" y="1331.0"/>
      <point x="553" y="1137.0" type="qcurve" smooth="yes"/>
      <point x="553" y="353.0" type="line" smooth="yes"/>
      <point x="553" y="155.0"/>
      <point x="456.0" y="-15.0"/>
      <point x="339" y="-15.0" type="qcurve" smooth="yes"/>
    </contour>
    <contour>
      <point x="328" y="-46.0" type="line" smooth="yes"/>
      <point x="465" y="-46"/>
      <point x="593" y="128.0"/>
      <point x="593" y="302.0" type="qcurve" smooth="yes"/>
      <point x="593" y="1177.0" type="line" smooth="yes"/>
      <point x="593" y="1354.0"/>
      <point x="467" y="1532.0"/>
      <point x="328" y="1532.0" type="qcurve" smooth="yes"/>
      <point x="308" y="1532.0" type="line" smooth="yes"/>
      <point x="174" y="1532.0"/>
      <point x="45" y="1354.0"/>
      <point x="45" y="1177.0" type="qcurve" smooth="yes"/>
      <point x="45" y="302.0" type="line" smooth="yes"/>
      <point x="45" y="128.0"/>
      <point x="171" y="-46"/>
      <point x="308" y="-46.0" type="qcurve" smooth="yes"/>
    </contour>
  </outline>
</glyph>
<glyph name="one" format="2">
  <advance width="402"/>
  <unicode hex="0031"/>
  <outline>
    <contour>
      <point x="216.0" y="0.0" type="line"/>
      <point x="216.0" y="1500.0" type="line"/>
      <point x="186.0" y="1500.0" type="line"/>
      <point x="186.0" y="0.0" type="line"/>
    </contour>
  </outline>
</glyph>
<glyph name="two" format="2">
  <advance width="687"/>
  <unicode hex="0032"/>
  <outline>
    <contour>
      <point x="628" y="0.0" type="line"/>
      <point x="6" y="0" type="line"/>
      <point x="6" y="20" type="line"/>
      <point x="449" y="776" type="line" smooth="yes"/>
      <point x="497" y="858"/>
      <point x="567.0" y="1093.0"/>
      <point x="567.0" y="1215.0" type="qcurve" smooth="yes"/>
      <point x="567.0" y="1227.0" type="line" smooth="yes"/>
      <point x="567" y="1317"/>
      <point x="436" y="1480"/>
      <point x="309" y="1480.0" type="qcurve" smooth="yes"/>
      <point x="304" y="1480.0" type="line" smooth="yes"/>
      <point x="187" y="1480"/>
      <point x="33" y="1351.0"/>
      <point x="33" y="1215.0" type="qcurve" smooth="yes"/>
      <point x="33.0" y="1121.0" type="line"/>
      <point x="3" y="1119.0" type="line"/>
      <point x="3" y="1217.0" type="line" smooth="yes"/>
      <point x="3" y="1356"/>
      <point x="166" y="1510"/>
      <point x="303" y="1510.0" type="qcurve" smooth="yes"/>
      <point x="310" y="1510.0" type="line" smooth="yes"/>
      <point x="454" y="1510"/>
      <point x="597.0" y="1335.0"/>
      <point x="597.0" y="1226.0" type="qcurve" smooth="yes"/>
      <point x="597.0" y="1214.0" type="line" smooth="yes"/>
      <point x="597" y="1097"/>
      <point x="524" y="851"/>
      <point x="466" y="752.0" type="qcurve" smooth="yes"/>
      <point x="47" y="35" type="line"/>
      <point x="628" y="35.0" type="line"/>
    </contour>
  </outline>
</glyph>
<glyph name="three" format="2">
  <advance width="727"/>
  <unicode hex="0033"/>
  <outline>
    <contour>
      <point x="366" y="805.0" type="qcurve" smooth="yes"/>
      <point x="217" y="806.0" type="line"/>
      <point x="217" y="838" type="line"/>
      <point x="349" y="838" type="line" smooth="yes"/>
      <point x="466" y="838.0"/>
      <point x="590" y="992"/>
      <point x="590" y="1113" type="qcurve" smooth="yes"/>
      <point x="590" y="1237" type="line" smooth="yes"/>
      <point x="590.0" y="1346.0"/>
      <point x="478.0" y="1485.0"/>
      <point x="363" y="1485" type="qcurve" smooth="yes"/>
      <point x="352" y="1485" type="line" smooth="yes"/>
      <point x="239.0" y="1485.0"/>
      <point x="116.0" y="1335.0"/>
      <point x="116" y="1235" type="qcurve" smooth="yes"/>
      <point x="116" y="1164" type="line"/>
      <point x="86" y="1164.0" type="line"/>
      <point x="86" y="1254.0" type="line" smooth="yes"/>
      <point x="86" y="1367.0"/>
      <point x="234.0" y="1515.0"/>
      <point x="352" y="1515.0" type="qcurve" smooth="yes"/>
      <point x="362" y="1515.0" type="line" smooth="yes"/>
      <point x="486.0" y="1515.0"/>
      <point x="620" y="1367.0"/>
      <point x="620" y="1238.0" type="qcurve" smooth="yes"/>
      <point x="620" y="1120.0" type="line" smooth="yes"/>
      <point x="620.0" y="994"/>
      <point x="522" y="846.0"/>
      <point x="443" y="828.0" type="qcurve"/>
      <point x="526" y="813.0"/>
      <point x="649" y="664.0"/>
      <point x="649" y="532.0" type="qcurve" smooth="yes"/>
      <point x="649" y="347.0" type="line" smooth="yes"/>
      <point x="649.0" y="171.0"/>
      <point x="507.0" y="-15.0"/>
      <point x="361" y="-15.0" type="qcurve" smooth="yes"/>
      <point x="355" y="-15.0" type="line" smooth="yes"/>
      <point x="222" y="-15.0"/>
      <point x="63" y="142.0"/>
      <point x="63" y="264.0" type="qcurve" smooth="yes"/>
      <point x="63" y="401.0" type="line"/>
      <point x="93" y="401.0" type="line"/>
      <point x="93.0" y="253" type="line" smooth="yes"/>
      <point x="93.0" y="156.0"/>
      <point x="230.0" y="14"/>
      <point x="355" y="14.0" type="qcurve" smooth="yes"/>
      <point x="360" y="14" type="line" smooth="yes"/>
      <point x="499" y="14"/>
      <point x="619.0" y="203.0"/>
      <point x="619.0" y="366" type="qcurve" smooth="yes"/>
      <point x="619" y="524.0" type="line" smooth="yes"/>
      <point x="619" y="664.0"/>
      <point x="479" y="812"/>
    </contour>
  </outline>
</glyph>
<glyph name="four" format="2">
  <advance width="706"/>
  <unicode hex="0034"/>
  <outline>
    <contour>
      <point x="468" y="0.0" type="line"/>
      <point x="468" y="1500.0" type="line"/>
      <point x="498" y="1500.0" type="line"/>
      <point x="498" y="2.0" type="line"/>
    </contour>
    <contour>
      <point x="645" y="476" type="line"/>
      <point x="645" y="448" type="line"/>
      <point x="46" y="448" type="line"/>
      <point x="40" y="483" type="line"/>
      <point x="400" y="1510" type="line"/>
      <point x="428" y="1503" type="line"/>
      <point x="69" y="478" type="line"/>
    </contour>
  </outline>
</glyph>
<glyph name="five" format="2">
  <advance width="744"/>
  <unicode hex="0035"/>
  <outline>
    <contour>
      <point x="416" y="959.0" type="line" smooth="yes"/>
      <point x="525.0" y="959.0"/>
      <point x="657.0" y="832.0"/>
      <point x="657" y="677.0" type="qcurve" smooth="yes"/>
      <point x="657" y="325.0" type="line" smooth="yes"/>
      <point x="657.0" y="154.0"/>
      <point x="514.0" y="-16.0"/>
      <point x="396" y="-16.0" type="qcurve" smooth="yes"/>
      <point x="381" y="-16.0" type="line" smooth="yes"/>
      <point x="252" y="-16"/>
      <point x="97" y="146.0"/>
      <point x="97" y="317.0" type="qcurve" smooth="yes"/>
      <point x="97" y="414.0" type="line"/>
      <point x="127.0" y="414" type="line"/>
      <point x="127.0" y="308" type="line" smooth="yes"/>
      <point x="127" y="164"/>
      <point x="265.0" y="14"/>
      <point x="384.0" y="14" type="qcurve" smooth="yes"/>
      <point x="393.0" y="14" type="line" smooth="yes"/>
      <point x="503.0" y="14.0"/>
      <point x="627.0" y="166.0"/>
      <point x="627.0" y="287" type="qcurve" smooth="yes"/>
      <point x="627" y="693.0" type="line" smooth="yes"/>
      <point x="627.0" y="811.0"/>
      <point x="514" y="928.0"/>
      <point x="409" y="928.0" type="qcurve"/>
      <point x="401" y="928" type="line" smooth="yes"/>
      <point x="325" y="928"/>
      <point x="204" y="830"/>
      <point x="171" y="741" type="qcurve"/>
      <point x="133" y="742.0" type="line"/>
      <point x="169" y="1500.0" type="line"/>
      <point x="619" y="1500.0" type="line"/>
      <point x="619" y="1470.0" type="line"/>
      <point x="194" y="1470" type="line"/>
      <point x="161" y="780" type="line"/>
      <point x="185" y="855"/>
      <point x="317" y="959"/>
      <point x="409" y="959" type="qcurve" smooth="yes"/>
    </contour>
  </outline>
</glyph>
<glyph name="six" format="2">
  <advance width="729"/>
  <unicode hex="0036"/>
  <outline>
    <contour>
      <point x="127" y="552.0" type="qcurve" smooth="yes"/>
      <point x="127" y="451.0" type="line" smooth="yes"/>
      <point x="127" y="241.0"/>
      <point x="263.0" y="12"/>
      <point x="391.0" y="12" type="qcurve" smooth="yes"/>
      <point x="398" y="12" type="line" smooth="yes"/>
      <point x="496.0" y="12.0"/>
      <point x="616.0" y="160"/>
      <point x="616.0" y="343" type="qcurve" smooth="yes"/>
      <point x="616.0" y="639" type="line" smooth="yes"/>
      <point x="616.0" y="792.0"/>
      <point x="505.0" y="904.0"/>
      <point x="422.0" y="904" type="qcurve" smooth="yes"/>
      <point x="408.0" y="904" type="line" smooth="yes"/>
      <point x="289.0" y="904.0"/>
      <point x="127" y="705.0"/>
      <point x="127" y="519.0" type="qcurve" smooth="yes"/>
      <point x="127" y="502.0" type="line"/>
      <point x="112" y="502" type="line"/>
      <point x="112" y="557" type="line" smooth="yes"/>
      <point x="112" y="745"/>
      <point x="289.0" y="933.0"/>
      <point x="412" y="933.0" type="qcurve" smooth="yes"/>
      <point x="420" y="933.0" type="line" smooth="yes"/>
      <point x="518" y="933"/>
      <point x="646" y="803"/>
      <point x="646" y="650" type="qcurve" smooth="yes"/>
      <point x="646" y="311" type="line" smooth="yes"/>
      <point x="646" y="147"/>
      <point x="512.0" y="-17.0"/>
      <point x="395" y="-17" type="qcurve" smooth="yes"/>
      <point x="390" y="-17.0" type="line" smooth="yes"/>
      <point x="248.0" y="-17"/>
      <point x="97" y="220.0"/>
      <point x="97.0" y="506" type="qcurve" smooth="yes"/>
      <point x="97" y="630" type="line" smooth="yes"/>
      <point x="97" y="1118.0"/>
      <point x="342.0" y="1500.0"/>
      <point x="560" y="1500" type="qcurve" smooth="yes"/>
      <point x="583" y="1500" type="line"/>
      <point x="583" y="1469" type="line"/>
      <point x="571" y="1469" type="line" smooth="yes"/>
      <point x="355" y="1469"/>
      <point x="127" y="1077.0"/>
    </contour>
  </outline>
</glyph>
<glyph name="seven" format="2">
  <advance width="597"/>
  <unicode hex="0037"/>
  <outline>
    <contour>
      <point x="59" y="1500" type="line"/>
      <point x="576" y="1500" type="line"/>
      <point x="579" y="1477" type="line"/>
      <point x="200" y="0" type="line"/>
      <point x="157" y="0" type="line"/>
      <point x="531" y="1463" type="line"/>
      <point x="60" y="1463" type="line"/>
    </contour>
  </outline>
</glyph>
<glyph name="eight" format="2">
  <advance width="730"/>
  <unicode hex="0038"/>
  <outline>
    <contour>
      <point x="363" y="-16" type="line" smooth="yes"/>
      <point x="213" y="-16"/>
      <point x="62" y="168.0"/>
      <point x="62" y="323" type="qcurve" smooth="yes"/>
      <point x="62" y="534" type="line" smooth="yes"/>
      <point x="62" y="701"/>
      <point x="228.0" y="844.0"/>
      <point x="359" y="844.0" type="qcurve" smooth="yes"/>
      <point x="363" y="844.0" type="line" smooth="yes"/>
      <point x="496.0" y="844.0"/>
      <point x="668" y="711"/>
      <point x="668" y="534" type="qcurve" smooth="yes"/>
      <point x="668" y="325" type="line" smooth="yes"/>
      <point x="668.0" y="168.0"/>
      <point x="521" y="-16"/>
      <point x="368" y="-16" type="qcurve" smooth="yes"/>
    </contour>
    <contour>
      <point x="369.0" y="11" type="line" smooth="yes"/>
      <point x="501" y="11"/>
      <point x="638.0" y="180.0"/>
      <point x="638.0" y="308" type="qcurve" smooth="yes"/>
      <point x="638.0" y="551" type="line" smooth="yes"/>
      <point x="638" y="686"/>
      <point x="481.0" y="812.0"/>
      <point x="362.0" y="812" type="qcurve" smooth="yes"/>
      <point x="357.0" y="812" type="line" smooth="yes"/>
      <point x="246.0" y="812.0"/>
      <point x="92" y="686"/>
      <point x="92.0" y="551" type="qcurve" smooth="yes"/>
      <point x="92.0" y="308" type="line" smooth="yes"/>
      <point x="92" y="179.0"/>
      <point x="234" y="11"/>
      <point x="362.0" y="11" type="qcurve" smooth="yes"/>
    </contour>
    <contour>
      <point x="359.0" y="815" type="line" smooth="yes"/>
      <point x="240.0" y="815.0"/>
      <point x="111.0" y="953"/>
      <point x="111.0" y="1095" type="qcurve" smooth="yes"/>
      <point x="111.0" y="1228" type="line" smooth="yes"/>
      <point x="111.0" y="1385"/>
      <point x="258.0" y="1515"/>
      <point x="359.0" y="1515" type="qcurve" smooth="yes"/>
      <point x="363.0" y="1515" type="line" smooth="yes"/>
      <point x="468.0" y="1515"/>
      <point x="621.0" y="1385"/>
      <point x="621.0" y="1225" type="qcurve" smooth="yes"/>
      <point x="621.0" y="1091" type="line" smooth="yes"/>
      <point x="621.0" y="952"/>
      <point x="483.0" y="815.0"/>
      <point x="363.0" y="815" type="qcurve" smooth="yes"/>
    </contour>
    <contour>
      <point x="361" y="844.0" type="line" smooth="yes"/>
      <point x="489" y="844.0"/>
      <point x="589" y="977.0"/>
      <point x="589" y="1074.0" type="qcurve" smooth="yes"/>
      <point x="589" y="1249.0" type="line" smooth="yes"/>
      <point x="589" y="1372.0"/>
      <point x="466" y="1484"/>
      <point x="361" y="1484.0" type="qcurve" smooth="yes"/>
      <point x="357" y="1484.0" type="line" smooth="yes"/>
      <point x="259" y="1484"/>
      <point x="143.0" y="1372.0"/>
      <point x="143.0" y="1249.0" type="qcurve" smooth="yes"/>
      <point x="143.0" y="1074.0" type="line" smooth="yes"/>
      <point x="143.0" y="977.0"/>
      <point x="231" y="844.0"/>
      <point x="356" y="844.0" type="qcurve" smooth="yes"/>
    </contour>
  </outline>
</glyph>
<glyph name="nine" format="2">
  <advance width="673"/>
  <unicode hex="0039"/>
  <outline>
    <contour>
      <point x="636.0" y="836.0" type="qcurve"/>
      <point x="635.0" y="1086.0" type="line" smooth="yes"/>
      <point x="623.0" y="1258.0"/>
      <point x="448.0" y="1533.0"/>
      <point x="295.0" y="1533.0" type="qcurve" smooth="yes"/>
      <point x="281.0" y="1533.0" type="line" smooth="yes"/>
      <point x="167.0" y="1533.0"/>
      <point x="15.0" y="1259.0"/>
      <point x="15.0" y="1079.0" type="qcurve" smooth="yes"/>
      <point x="15.0" y="956.0" type="line" smooth="yes"/>
      <point x="15.0" y="769.0"/>
      <point x="176.0" y="548.0"/>
      <point x="301.0" y="548.0" type="qcurve" smooth="yes"/>
      <point x="314.0" y="548.0" type="line" smooth="yes"/>
      <point x="438.0" y="548.0"/>
      <point x="673.0" y="802.0"/>
      <point x="648.0" y="955.0" type="qcurve" smooth="yes"/>
      <point x="649.0" y="990.0" type="line"/>
      <point x="633.0" y="982.0" type="line"/>
      <point x="632.0" y="970.0" type="line" smooth="yes"/>
      <point x="616.0" y="754.0"/>
      <point x="375.0" y="556.0"/>
      <point x="286.0" y="556.0" type="qcurve" smooth="yes"/>
      <point x="280.0" y="556.0" type="line" smooth="yes"/>
      <point x="168.0" y="556.0"/>
      <point x="62.0" y="724.0"/>
      <point x="62.0" y="923.0" type="qcurve" smooth="yes"/>
      <point x="62.0" y="1126.0" type="line" smooth="yes"/>
      <point x="62.0" y="1300.0"/>
      <point x="189.0" y="1502.0"/>
      <point x="302.0" y="1502.0" type="qcurve" smooth="yes"/>
      <point x="312.0" y="1502.0" type="line" smooth="yes"/>
      <point x="461.0" y="1502.0"/>
      <point x="589.0" y="1268.0"/>
      <point x="597.0" y="1050.0" type="qcurve" smooth="yes"/>
      <point x="599.0" y="847.0" type="line" smooth="yes"/>
      <point x="611.0" y="408.0"/>
      <point x="318.0" y="26.0"/>
      <point x="140.0" y="17.0" type="qcurve" smooth="yes"/>
      <point x="117.0" y="17.0" type="line"/>
      <point x="117.0" y="1.0" type="line"/>
      <point x="129.0" y="2.0" type="line" smooth="yes"/>
      <point x="374.0" y="11.0"/>
      <point x="619.0" y="420.0"/>
    </contour>
  </outline>
</glyph>
<glyph name="colon" format="2">
  <advance width="450"/>
  <unicode hex="003A"/>
  <outline>
    <contour>
      <point x="225" y="3" type="line" smooth="yes"/>
      <point x="226" y="3"/>
      <point x="227.0" y="28.0"/>
      <point x="227" y="57" type="qcurve" smooth="yes"/>
      <point x="227" y="82" type="line" smooth="yes"/>
      <point x="227" y="110"/>
      <point x="228" y="136"/>
      <point x="226" y="136" type="qcurve" smooth="yes"/>
      <point x="224" y="136" type="line" smooth="yes"/>
      <point x="223" y="136"/>
      <point x="222" y="110"/>
      <point x="222" y="82" type="qcurve" smooth="yes"/>
      <point x="222" y="57" type="line" smooth="yes"/>
      <point x="222.0" y="29.0"/>
      <point x="222" y="3"/>
      <point x="224" y="3" type="qcurve" smooth="yes"/>
    </contour>
    <contour>
      <point x="225" y="816" type="line" smooth="yes"/>
      <point x="226" y="816"/>
      <point x="227.0" y="841.0"/>
      <point x="227" y="870" type="qcurve" smooth="yes"/>
      <point x="227" y="895" type="line" smooth="yes"/>
      <point x="227" y="923"/>
      <point x="228" y="949"/>
      <point x="226" y="949" type="qcurve" smooth="yes"/>
      <point x="224" y="949" type="line" smooth="yes"/>
      <point x="223" y="949"/>
      <point x="222" y="923"/>
      <point x="222" y="895" type="qcurve" smooth="yes"/>
      <point x="222" y="870" type="line" smooth="yes"/>
      <point x="222.0" y="842.0"/>
      <point x="222" y="816"/>
      <point x="224" y="816" type="qcurve" smooth="yes"/>
    </contour>
  </outline>
</glyph>
<glyph name="less" format="2">
  <advance width="250"/>
  <unicode hex="003C"/>
  <outline>
    <contour>
      <point x="-192.0" y="720.0" type="line"/>
      <point x="-192.0" y="691.0" type="line"/>
      <point x="448.0" y="1066.0" type="line"/>
      <point x="448.0" y="1070.0" type="line"/>
      <point x="-214.0" y="724.0" type="line"/>
      <point x="448.0" y="352.0" type="line"/>
      <point x="448.0" y="370.0" type="line"/>
    </contour>
  </outline>
</glyph>
<glyph name="greater" format="2">
  <advance width="250"/>
  <unicode hex="003E"/>
  <outline>
    <contour>
      <point x="442.0" y="691.0" type="line"/>
      <point x="442.0" y="720.0" type="line"/>
      <point x="-198.0" y="344.0" type="line"/>
      <point x="-198.0" y="329.0" type="line"/>
      <point x="464.0" y="688.0" type="line"/>
      <point x="-198.0" y="1047.0" type="line"/>
      <point x="-198.0" y="1040.0" type="line"/>
    </contour>
  </outline>
</glyph>
<glyph name="A" format="2">
  <advance width="710"/>
  <unicode hex="0041"/>
  <outline>
    <contour>
      <point x="571" y="506" type="line"/>
      <point x="140" y="506" type="line"/>
      <point x="127" y="477" type="line"/>
      <point x="582" y="477" type="line"/>
    </contour>
    <contour>
      <point x="363" y="1427" type="line"/>
      <point x="671" y="0" type="line"/>
      <point x="700" y="0" type="line"/>
      <point x="367" y="1525" type="line"/>
      <point x="356" y="1525" type="line"/>
      <point x="10" y="0" type="line"/>
      <point x="38" y="0" type="line"/>
      <point x="359" y="1427" type="line"/>
    </contour>
  </outline>
</glyph>
<glyph name="B" format="2">
  <advance width="749"/>
  <unicode hex="0042"/>
  <outline>
    <contour>
      <point x="150" y="0" type="line"/>
      <point x="150" y="1500" type="line"/>
      <point x="120" y="1500" type="line"/>
      <point x="120" y="0" type="line"/>
    </contour>
    <contour>
      <point x="334.0" y="771" type="line"/>
      <point x="483" y="771.0"/>
      <point x="648" y="637"/>
      <point x="648.0" y="510" type="qcurve" smooth="yes"/>
      <point x="648.0" y="320" type="line" smooth="yes"/>
      <point x="648" y="202"/>
      <point x="511.0" y="28.0"/>
      <point x="357.0" y="28" type="qcurve" smooth="yes"/>
      <point x="137.0" y="28" type="line"/>
      <point x="137.0" y="0.0" type="line"/>
      <point x="376.0" y="0.0" type="line" smooth="yes"/>
      <point x="513.0" y="0.0"/>
      <point x="679" y="175"/>
      <point x="679.0" y="322" type="qcurve" smooth="yes"/>
      <point x="679.0" y="502" type="line" smooth="yes"/>
      <point x="679" y="656"/>
      <point x="501.0" y="800.0"/>
      <point x="360.0" y="800" type="qcurve" smooth="yes"/>
      <point x="137.0" y="800" type="line"/>
      <point x="137.0" y="771" type="line"/>
      <point x="346.0" y="771" type="line" smooth="yes"/>
      <point x="478.0" y="771.0"/>
      <point x="616" y="893"/>
      <point x="616.0" y="1054" type="qcurve" smooth="yes"/>
      <point x="616.0" y="1276" type="line" smooth="yes"/>
      <point x="616" y="1384"/>
      <point x="500.0" y="1500.0"/>
      <point x="403.0" y="1500" type="qcurve" smooth="yes"/>
      <point x="137.0" y="1500" type="line"/>
      <point x="137.0" y="1472" type="line"/>
      <point x="376.0" y="1472" type="line" smooth="yes"/>
      <point x="485.0" y="1472.0"/>
      <point x="585" y="1362"/>
      <point x="585.0" y="1266" type="qcurve" smooth="yes"/>
      <point x="585.0" y="1059" type="line" smooth="yes"/>
      <point x="585" y="921"/>
      <point x="483" y="800"/>
      <point x="334.0" y="800" type="qcurve"/>
    </contour>
  </outline>
</glyph>
<glyph name="C" format="2">
  <advance width="736"/>
  <unicode hex="0043"/>
  <outline>
    <contour>
      <point x="384" y="-11" type="line" smooth="yes"/>
      <point x="517" y="-11.0"/>
      <point x="685" y="170"/>
      <point x="685" y="337.0" type="qcurve" smooth="yes"/>
      <point x="685" y="537.0" type="line"/>
      <point x="653" y="540.0" type="line"/>
      <point x="653" y="320.0" type="line" smooth="yes"/>
      <point x="653" y="182"/>
      <point x="507.0" y="15.0"/>
      <point x="385" y="15.0" type="qcurve" smooth="yes"/>
      <point x="381" y="15.0" type="line" smooth="yes"/>
      <point x="264.0" y="15"/>
      <point x="119" y="178"/>
      <point x="119" y="321" type="qcurve" smooth="yes"/>
      <point x="119" y="1171" type="line" smooth="yes"/>
      <point x="119.0" y="1317"/>
      <point x="270.0" y="1483.0"/>
      <point x="375" y="1483.0" type="qcurve" smooth="yes"/>
      <point x="383" y="1483.0" type="line" smooth="yes"/>
      <point x="505" y="1483.0"/>
      <point x="656" y="1331"/>
      <point x="655" y="1191.0" type="qcurve" smooth="yes"/>
      <point x="655" y="957.0" type="line"/>
      <point x="683" y="967.0" type="line"/>
      <point x="683" y="1182.0" type="line" smooth="yes"/>
      <point x="683" y="1347"/>
      <point x="516" y="1511.0"/>
      <point x="384" y="1511.0" type="qcurve" smooth="yes"/>
      <point x="377" y="1511.0" type="line" smooth="yes"/>
      <point x="257.0" y="1511.0"/>
      <point x="89" y="1333"/>
      <point x="89" y="1148" type="qcurve" smooth="yes"/>
      <point x="89" y="348" type="line" smooth="yes"/>
      <point x="89" y="168.0"/>
      <point x="255.0" y="-11"/>
      <point x="381" y="-11.0" type="qcurve" smooth="yes"/>
    </contour>
  </outline>
</glyph>
<glyph name="D" format="2">
  <advance width="763"/>
  <unicode hex="0044"/>
  <outline>
    <contour>
      <point x="150" y="0" type="line"/>
      <point x="150" y="1500" type="line"/>
      <point x="120" y="1500" type="line"/>
      <point x="120" y="0" type="line"/>
    </contour>
    <contour>
      <point x="403.0" y="0" type="line" smooth="yes"/>
      <point x="531.0" y="0.0"/>
      <point x="674.0" y="162.0"/>
      <point x="674.0" y="339" type="qcurve" smooth="yes"/>
      <point x="674" y="1171.0" type="line" smooth="yes"/>
      <point x="674" y="1326"/>
      <point x="535.0" y="1500.0"/>
      <point x="396" y="1500.0" type="qcurve" smooth="yes"/>
      <point x="142" y="1500.0" type="line"/>
      <point x="142" y="1470" type="line"/>
      <point x="376.0" y="1470" type="line" smooth="yes"/>
      <point x="523.0" y="1470.0"/>
      <point x="646" y="1308"/>
      <point x="646.0" y="1153" type="qcurve" smooth="yes"/>
      <point x="646.0" y="323" type="line" smooth="yes"/>
      <point x="646.0" y="175.0"/>
      <point x="525.0" y="27.0"/>
      <point x="399.0" y="27" type="qcurve" smooth="yes"/>
      <point x="142" y="27" type="line"/>
      <point x="142" y="0.0" type="line"/>
    </contour>
  </outline>
</glyph>
<glyph name="E" format="2">
  <advance width="614"/>
  <unicode hex="0045"/>
  <outline>
    <contour>
      <point x="120" y="0" type="line"/>
      <point x="120" y="1500" type="line"/>
      <point x="150" y="1500" type="line"/>
      <point x="150" y="0" type="line"/>
    </contour>
    <contour>
      <point x="556" y="791" type="line"/>
      <point x="141" y="791" type="line"/>
      <point x="141" y="819" type="line"/>
      <point x="556" y="819" type="line"/>
    </contour>
    <contour>
      <point x="610" y="1472" type="line"/>
      <point x="135" y="1472" type="line"/>
      <point x="135" y="1500" type="line"/>
      <point x="610" y="1500" type="line"/>
    </contour>
    <contour>
      <point x="600" y="0" type="line"/>
      <point x="135" y="0" type="line"/>
      <point x="135" y="28" type="line"/>
      <point x="600" y="28" type="line"/>
    </contour>
  </outline>
</glyph>
<glyph name="F" format="2">
  <advance width="540"/>
  <unicode hex="0046"/>
  <outline>
    <contour>
      <point x="120" y="0" type="line"/>
      <point x="120" y="1500" type="line"/>
      <point x="150" y="1500" type="line"/>
      <point x="150" y="0" type="line"/>
    </contour>
    <contour>
      <point x="496" y="772" type="line"/>
      <point x="131" y="772" type="line"/>
      <point x="131" y="802" type="line"/>
      <point x="496" y="802" type="line"/>
    </contour>
    <contour>
      <point x="536" y="1472" type="line"/>
      <point x="131" y="1472" type="line"/>
      <point x="131" y="1500" type="line"/>
      <point x="536" y="1500" type="line"/>
    </contour>
  </outline>
</glyph>
<glyph name="G" format="2">
  <advance width="719"/>
  <unicode hex="0047"/>
  <outline>
    <contour>
      <point x="380" y="-11" type="line" smooth="yes"/>
      <point x="510" y="-11"/>
      <point x="640" y="139"/>
      <point x="640" y="305" type="qcurve" smooth="yes"/>
      <point x="640" y="683.0" type="line"/>
      <point x="392" y="683.0" type="line"/>
      <point x="392" y="657.0" type="line"/>
      <point x="612" y="657.0" type="line"/>
      <point x="612.0" y="315" type="line" smooth="yes"/>
      <point x="612" y="154"/>
      <point x="495" y="15"/>
      <point x="382" y="15" type="qcurve" smooth="yes"/>
      <point x="377" y="15.0" type="line" smooth="yes"/>
      <point x="252" y="15"/>
      <point x="118.0" y="179"/>
      <point x="118.0" y="319" type="qcurve" smooth="yes"/>
      <point x="118" y="1170" type="line" smooth="yes"/>
      <point x="118" y="1320"/>
      <point x="270" y="1483.0"/>
      <point x="378" y="1483.0" type="qcurve" smooth="yes"/>
      <point x="382" y="1483.0" type="line" smooth="yes"/>
      <point x="469" y="1483"/>
      <point x="598.0" y="1332"/>
      <point x="598" y="1165.0" type="qcurve" smooth="yes"/>
      <point x="598" y="1007.0" type="line"/>
      <point x="628" y="1007.0" type="line"/>
      <point x="628" y="1175.0" type="line" smooth="yes"/>
      <point x="628.0" y="1324.0"/>
      <point x="505" y="1511.0"/>
      <point x="384" y="1511.0" type="qcurve" smooth="yes"/>
      <point x="376" y="1511.0" type="line" smooth="yes"/>
      <point x="257" y="1511.0"/>
      <point x="89" y="1333.0"/>
      <point x="89" y="1152" type="qcurve" smooth="yes"/>
      <point x="89" y="347" type="line" smooth="yes"/>
      <point x="89" y="169"/>
      <point x="242" y="-11"/>
      <point x="375" y="-11.0" type="qcurve" smooth="yes"/>
    </contour>
  </outline>
</glyph>
<glyph name="H" format="2">
  <advance width="762"/>
  <unicode hex="0048"/>
  <outline>
    <contour>
      <point x="150" y="0" type="line"/>
      <point x="150" y="1500" type="line"/>
      <point x="120" y="1500" type="line"/>
      <point x="120" y="0" type="line"/>
    </contour>
    <contour>
      <point x="642" y="0" type="line"/>
      <point x="642" y="1500" type="line"/>
      <point x="612" y="1500" type="line"/>
      <point x="612" y="0" type="line"/>
    </contour>
    <contour>
      <point x="622" y="819" type="line"/>
      <point x="140" y="819" type="line"/>
      <point x="140" y="790" type="line"/>
      <point x="622" y="790" type="line"/>
    </contour>
  </outline>
</glyph>
<glyph name="I" format="2">
  <advance width="418"/>
  <unicode hex="0049"/>
  <outline>
    <contour>
      <point x="194" y="10" type="line"/>
      <point x="194" y="1490" type="line"/>
      <point x="224" y="1490" type="line"/>
      <point x="224" y="10" type="line"/>
    </contour>
    <contour>
      <point x="96" y="0" type="line"/>
      <point x="96" y="28" type="line"/>
      <point x="323" y="28" type="line"/>
      <point x="323" y="0" type="line"/>
    </contour>
    <contour>
      <point x="95" y="1472" type="line"/>
      <point x="95" y="1500" type="line"/>
      <point x="323" y="1500" type="line"/>
      <point x="323" y="1472" type="line"/>
    </contour>
  </outline>
</glyph>
<glyph name="J" format="2">
  <advance width="736"/>
  <unicode hex="004A"/>
  <outline>
    <contour>
      <point x="596.0" y="350.0" type="line" smooth="yes"/>
      <point x="596.0" y="181.0"/>
      <point x="476.0" y="15.0"/>
      <point x="367.0" y="15.0" type="qcurve" smooth="yes"/>
      <point x="363.0" y="15.0" type="line" smooth="yes"/>
      <point x="242" y="15"/>
      <point x="108.0" y="171.0"/>
      <point x="108" y="318" type="qcurve" smooth="yes"/>
      <point x="108" y="339" type="line"/>
      <point x="78.0" y="339.0" type="line"/>
      <point x="78.0" y="307.0" type="line" smooth="yes"/>
      <point x="78" y="154.0"/>
      <point x="233" y="-11"/>
      <point x="362" y="-11.0" type="qcurve" smooth="yes"/>
      <point x="368.0" y="-11" type="line" smooth="yes"/>
      <point x="492.0" y="-11.0"/>
      <point x="626.0" y="169.0"/>
      <point x="626.0" y="333.0" type="qcurve" smooth="yes"/>
      <point x="626" y="1500" type="line"/>
      <point x="596" y="1500.0" type="line"/>
    </contour>
  </outline>
</glyph>
<glyph name="K" format="2">
  <advance width="603"/>
  <unicode hex="004B"/>
  <outline>
    <contour>
      <point x="272" y="839" type="line"/>
      <point x="238" y="918" type="line"/>
      <point x="545" y="0" type="line"/>
      <point x="602" y="0" type="line"/>
    </contour>
    <contour>
      <point x="120" y="0" type="line"/>
      <point x="120" y="1500" type="line"/>
      <point x="150" y="1500" type="line"/>
      <point x="150" y="0" type="line"/>
    </contour>
    <contour>
      <point x="140" y="672" type="line"/>
      <point x="349" y="1030" type="line"/>
      <point x="548" y="1500" type="line"/>
      <point x="502" y="1500" type="line"/>
      <point x="306" y="901" type="line"/>
      <point x="306" y="915" type="line"/>
      <point x="140" y="557" type="line"/>
    </contour>
  </outline>
</glyph>
<glyph name="L" format="2">
  <advance width="539"/>
  <unicode hex="004C"/>
  <outline>
    <contour>
      <point x="114" y="0" type="line"/>
      <point x="114" y="1500" type="line"/>
      <point x="144" y="1500" type="line"/>
      <point x="144" y="0" type="line"/>
    </contour>
    <contour>
      <point x="502" y="0" type="line"/>
      <point x="128" y="0" type="line"/>
      <point x="130" y="30" type="line"/>
      <point x="502" y="30" type="line"/>
    </contour>
  </outline>
</glyph>
<glyph name="M" format="2">
  <advance width="968"/>
  <unicode hex="004D"/>
  <outline>
    <contour>
      <point x="120" y="0" type="line"/>
      <point x="120" y="1500" type="line"/>
      <point x="164" y="1500" type="line"/>
      <point x="485" y="57" type="line"/>
      <point x="478" y="57" type="line"/>
      <point x="809" y="1500" type="line"/>
      <point x="848" y="1500" type="line"/>
      <point x="848" y="0" type="line"/>
      <point x="818" y="0" type="line"/>
      <point x="818" y="1402" type="line"/>
      <point x="499" y="0" type="line"/>
      <point x="467" y="0" type="line"/>
      <point x="150" y="1405" type="line"/>
      <point x="150" y="0" type="line"/>
    </contour>
  </outline>
</glyph>
<glyph name="N" format="2">
  <advance width="731"/>
  <unicode hex="004E"/>
  <outline>
    <contour>
      <point x="120" y="0" type="line"/>
      <point x="120" y="1500" type="line"/>
      <point x="156" y="1500" type="line"/>
      <point x="581" y="81" type="line"/>
      <point x="581" y="1500" type="line"/>
      <point x="611" y="1500" type="line"/>
      <point x="611" y="0" type="line"/>
      <point x="573" y="0" type="line"/>
      <point x="573" y="3" type="line"/>
      <point x="150" y="1416" type="line"/>
      <point x="150" y="0" type="line"/>
    </contour>
  </outline>
</glyph>
<glyph name="O" format="2">
  <advance width="763"/>
  <unicode hex="004F"/>
  <outline>
    <contour>
      <point x="381" y="15.0" type="line" smooth="yes"/>
      <point x="264.0" y="15"/>
      <point x="118.0" y="180.0"/>
      <point x="118" y="319" type="qcurve" smooth="yes"/>
      <point x="118" y="1171" type="line" smooth="yes"/>
      <point x="118.0" y="1319"/>
      <point x="270" y="1483"/>
      <point x="379" y="1483.0" type="qcurve" smooth="yes"/>
      <point x="381" y="1483.0" type="line" smooth="yes"/>
      <point x="504" y="1483"/>
      <point x="646.0" y="1316"/>
      <point x="646.0" y="1169" type="qcurve" smooth="yes"/>
      <point x="646.0" y="325" type="line" smooth="yes"/>
      <point x="646.0" y="188.0"/>
      <point x="507.0" y="15.0"/>
      <point x="384" y="15.0" type="qcurve" smooth="yes"/>
    </contour>
    <contour>
      <point x="384.0" y="-11.0" type="line" smooth="yes"/>
      <point x="516.0" y="-11.0"/>
      <point x="674" y="170"/>
      <point x="674.0" y="335" type="qcurve" smooth="yes"/>
      <point x="674.0" y="1167" type="line" smooth="yes"/>
      <point x="674.0" y="1333"/>
      <point x="516" y="1511.0"/>
      <point x="384.0" y="1511.0" type="qcurve" smooth="yes"/>
      <point x="377.0" y="1511.0" type="line" smooth="yes"/>
      <point x="257" y="1511.0"/>
      <point x="89" y="1333"/>
      <point x="89.0" y="1152" type="qcurve" smooth="yes"/>
      <point x="89" y="347" type="line" smooth="yes"/>
      <point x="89" y="169"/>
      <point x="254" y="-11"/>
      <point x="381" y="-11.0" type="qcurve" smooth="yes"/>
    </contour>
  </outline>
</glyph>
<glyph name="P" format="2">
  <advance width="759"/>
  <unicode hex="0050"/>
  <outline>
    <contour>
      <point x="151" y="0" type="line"/>
      <point x="151" y="1500" type="line"/>
      <point x="120" y="1500" type="line"/>
      <point x="120" y="0" type="line"/>
    </contour>
    <contour>
      <point x="402" y="727" type="qcurve" smooth="yes"/>
      <point x="139.0" y="727" type="line"/>
      <point x="139.0" y="753.0" type="line"/>
      <point x="414" y="753.0" type="line" smooth="yes"/>
      <point x="530.0" y="753.0"/>
      <point x="655.0" y="852.0"/>
      <point x="655" y="965.0" type="qcurve" smooth="yes"/>
      <point x="655" y="1265.0" type="line" smooth="yes"/>
      <point x="655.0" y="1372.0"/>
      <point x="547.0" y="1474.0"/>
      <point x="429" y="1474.0" type="qcurve" smooth="yes"/>
      <point x="139.0" y="1474.0" type="line"/>
      <point x="139" y="1500" type="line"/>
      <point x="463.0" y="1500.0" type="line" smooth="yes"/>
      <point x="561.0" y="1500.0"/>
      <point x="684.0" y="1392.0"/>
      <point x="684.0" y="1281" type="qcurve" smooth="yes"/>
      <point x="684.0" y="971" type="line" smooth="yes"/>
      <point x="684.0" y="847.0"/>
      <point x="552" y="727.0"/>
    </contour>
  </outline>
</glyph>
<glyph name="Q" format="2">
  <advance width="763"/>
  <unicode hex="0051"/>
  <outline>
    <contour>
      <point x="381" y="-7.0" type="line" smooth="yes"/>
      <point x="266" y="-7"/>
      <point x="118" y="200.0"/>
      <point x="118" y="396.0" type="qcurve" smooth="yes"/>
      <point x="118" y="1101.0" type="line" smooth="yes"/>
      <point x="118" y="1285.0"/>
      <point x="270.0" y="1503.0"/>
      <point x="379" y="1503.0" type="qcurve" smooth="yes"/>
      <point x="381" y="1503.0" type="line" smooth="yes"/>
      <point x="504" y="1503.0"/>
      <point x="646.0" y="1285.0"/>
      <point x="646.0" y="1120.0" type="qcurve" smooth="yes"/>
      <point x="646.0" y="384.0" type="line" smooth="yes"/>
      <point x="646.0" y="200.0"/>
      <point x="495.0" y="-7.0"/>
      <point x="384" y="-7.0" type="qcurve" smooth="yes"/>
    </contour>
    <contour>
      <point x="389.0" y="-36.0" type="line" smooth="yes"/>
      <point x="528.0" y="-36.0"/>
      <point x="679.0" y="167.0"/>
      <point x="679.0" y="324" type="qcurve" smooth="yes"/>
      <point x="679.0" y="1147" type="line" smooth="yes"/>
      <point x="679.0" y="1310"/>
      <point x="530.0" y="1518"/>
      <point x="389.0" y="1518.0" type="qcurve" smooth="yes"/>
      <point x="382.0" y="1518.0" type="line" smooth="yes"/>
      <point x="248.0" y="1518"/>
      <point x="94.0" y="1330.0"/>
      <point x="94.0" y="1160" type="qcurve" smooth="yes"/>
      <point x="94.0" y="316" type="line" smooth="yes"/>
      <point x="94.0" y="167.0"/>
      <point x="235.0" y="-36.0"/>
      <point x="382.0" y="-36.0" type="qcurve" smooth="yes"/>
    </contour>
    <contour>
      <point x="203" y="-50" type="line"/>
      <point x="736" y="-65" type="line"/>
      <point x="736" y="-70" type="line"/>
      <point x="204" y="-29" type="line"/>
    </contour>
  </outline>
</glyph>
<glyph name="R" format="2">
  <advance width="784"/>
  <unicode hex="0052"/>
  <outline>
    <contour>
      <point x="120" y="0" type="line"/>
      <point x="120" y="1500" type="line"/>
      <point x="150" y="1500" type="line"/>
      <point x="150" y="0" type="line"/>
    </contour>
    <contour>
      <point x="418" y="721.0" type="qcurve" smooth="yes"/>
      <point x="136" y="721.0" type="line"/>
      <point x="136" y="749.0" type="line"/>
      <point x="404" y="749.0" type="line" smooth="yes"/>
      <point x="508" y="749"/>
      <point x="614.0" y="846.0"/>
      <point x="614" y="951.0" type="qcurve" smooth="yes"/>
      <point x="614" y="1258.0" type="line" smooth="yes"/>
      <point x="614.0" y="1366.0"/>
      <point x="508" y="1469"/>
      <point x="408" y="1469" type="qcurve" smooth="yes"/>
      <point x="135" y="1470.0" type="line"/>
      <point x="135" y="1500.0" type="line"/>
      <point x="418" y="1500.0" type="line" smooth="yes"/>
      <point x="534" y="1500"/>
      <point x="645.0" y="1385.0"/>
      <point x="645.0" y="1274.0" type="qcurve" smooth="yes"/>
      <point x="645.0" y="921.0" type="line" smooth="yes"/>
      <point x="645.0" y="828.0"/>
      <point x="526.0" y="721.0"/>
    </contour>
    <contour>
      <point x="447" y="732" type="line"/>
      <point x="726" y="0" type="line"/>
      <point x="693" y="0" type="line"/>
      <point x="416" y="730" type="line"/>
    </contour>
  </outline>
</glyph>
<glyph name="S" format="2">
  <advance width="660"/>
  <unicode hex="0053"/>
  <outline>
    <contour>
      <point x="613.0" y="368.0" type="line" smooth="yes"/>
      <point x="613.0" y="524.0"/>
      <point x="385" y="733"/>
      <point x="296" y="834" type="qcurve" smooth="yes"/>
      <point x="225" y="946"/>
      <point x="89" y="1108.0"/>
      <point x="89" y="1252" type="qcurve" smooth="yes"/>
      <point x="89" y="1300" type="line" smooth="yes"/>
      <point x="89" y="1415.0"/>
      <point x="232.0" y="1503.0"/>
      <point x="327" y="1503.0" type="qcurve" smooth="yes"/>
      <point x="341" y="1503.0" type="line" smooth="yes"/>
      <point x="437" y="1503.0"/>
      <point x="589.0" y="1404.0"/>
      <point x="573" y="1291.0" type="qcurve" smooth="yes"/>
      <point x="573" y="1115.0" type="line"/>
      <point x="612.0" y="1116.0" type="line"/>
      <point x="612.0" y="1274" type="line" smooth="yes"/>
      <point x="612.0" y="1402.0"/>
      <point x="466.0" y="1507.0"/>
      <point x="346.0" y="1507" type="qcurve" smooth="yes"/>
      <point x="325.0" y="1507" type="line" smooth="yes"/>
      <point x="210.0" y="1507.0"/>
      <point x="60" y="1383.0"/>
      <point x="60.0" y="1276" type="qcurve" smooth="yes"/>
      <point x="60.0" y="1154" type="line" smooth="yes"/>
      <point x="60" y="1027.0"/>
      <point x="258" y="865"/>
      <point x="330" y="788" type="qcurve" smooth="yes"/>
      <point x="394" y="704"/>
      <point x="578.0" y="502.0"/>
      <point x="578.0" y="328.0" type="qcurve" smooth="yes"/>
      <point x="578.0" y="322.0" type="line" smooth="yes"/>
      <point x="578" y="167"/>
      <point x="438.0" y="-7.0"/>
      <point x="335" y="-7.0" type="qcurve" smooth="yes"/>
      <point x="322" y="-7.0" type="line" smooth="yes"/>
      <point x="223.0" y="-7"/>
      <point x="87" y="164.0"/>
      <point x="87" y="321.0" type="qcurve" smooth="yes"/>
      <point x="87" y="434.0" type="line"/>
      <point x="23.0" y="434.0" type="line"/>
      <point x="23.0" y="262" type="line" smooth="yes"/>
      <point x="23.0" y="138.0"/>
      <point x="181" y="-32"/>
      <point x="324.0" y="-32" type="qcurve" smooth="yes"/>
      <point x="343.0" y="-32" type="line" smooth="yes"/>
      <point x="480.0" y="-32.0"/>
      <point x="613.0" y="200.0"/>
      <point x="613.0" y="332" type="qcurve" smooth="yes"/>
    </contour>
  </outline>
</glyph>
<glyph name="T" format="2">
  <advance width="582"/>
  <unicode hex="0054"/>
  <outline>
    <contour>
      <point x="276.0" y="0.0" type="line"/>
      <point x="276.0" y="1490.0" type="line"/>
      <point x="306.0" y="1490.0" type="line"/>
      <point x="306.0" y="0.0" type="line"/>
    </contour>
    <contour>
      <point x="574" y="1471" type="line"/>
      <point x="8" y="1471" type="line"/>
      <point x="8" y="1500" type="line"/>
      <point x="574" y="1500" type="line"/>
    </contour>
  </outline>
</glyph>
<glyph name="U" format="2">
  <advance width="731"/>
  <unicode hex="0055"/>
  <outline>
    <contour>
      <point x="102" y="1500.0" type="line"/>
      <point x="132" y="1500" type="line"/>
      <point x="132.0" y="268" type="line" smooth="yes"/>
      <point x="132" y="157"/>
      <point x="268.0" y="20"/>
      <point x="368" y="20" type="qcurve" smooth="yes"/>
      <point x="380" y="20" type="line" smooth="yes"/>
      <point x="476" y="20"/>
      <point x="599" y="163"/>
      <point x="599.0" y="270" type="qcurve" smooth="yes"/>
      <point x="599" y="1500" type="line"/>
      <point x="629" y="1500.0" type="line"/>
      <point x="629.0" y="301" type="line" smooth="yes"/>
      <point x="629" y="152"/>
      <point x="494.0" y="-9.0"/>
      <point x="384" y="-9.0" type="qcurve" smooth="yes"/>
      <point x="372" y="-9.0" type="line" smooth="yes"/>
      <point x="255.0" y="-9"/>
      <point x="102" y="146.0"/>
      <point x="102" y="300.0" type="qcurve" smooth="yes"/>
    </contour>
  </outline>
</glyph>
<glyph name="V" format="2">
  <advance width="710"/>
  <unicode hex="0056"/>
  <outline>
    <contour>
      <point x="329" y="0" type="line"/>
      <point x="40" y="1500" type="line"/>
      <point x="70" y="1500" type="line"/>
      <point x="350" y="33" type="line"/>
      <point x="639" y="1500" type="line"/>
      <point x="670" y="1500" type="line"/>
      <point x="373" y="0" type="line"/>
    </contour>
  </outline>
</glyph>
<glyph name="W" format="2">
  <advance width="1002"/>
  <unicode hex="0057"/>
  <outline>
    <contour>
      <point x="261" y="0" type="line"/>
      <point x="40" y="1500" type="line"/>
      <point x="69" y="1500" type="line"/>
      <point x="276" y="107" type="line"/>
      <point x="498" y="1500" type="line"/>
      <point x="526" y="1500" type="line"/>
      <point x="745" y="112" type="line"/>
      <point x="931" y="1500" type="line"/>
      <point x="962" y="1500" type="line"/>
      <point x="757" y="0" type="line"/>
      <point x="730" y="0" type="line"/>
      <point x="515" y="1415" type="line"/>
      <point x="513" y="1417" type="line"/>
      <point x="290" y="0" type="line"/>
    </contour>
  </outline>
</glyph>
<glyph name="X" format="2">
  <advance width="720"/>
  <unicode hex="0058"/>
  <outline>
    <contour>
      <point x="49" y="0" type="line"/>
      <point x="345" y="788" type="line"/>
      <point x="348" y="795" type="line"/>
      <point x="614" y="1500" type="line"/>
      <point x="646" y="1500" type="line"/>
      <point x="366" y="758" type="line"/>
      <point x="362" y="748" type="line"/>
      <point x="81" y="0" type="line"/>
    </contour>
    <contour>
      <point x="637" y="0" type="line"/>
      <point x="349" y="748" type="line"/>
      <point x="346" y="756" type="line"/>
      <point x="59" y="1500" type="line"/>
      <point x="92" y="1500" type="line"/>
      <point x="363" y="799" type="line"/>
      <point x="366" y="791" type="line"/>
      <point x="671" y="0" type="line"/>
    </contour>
  </outline>
</glyph>
<glyph name="Y" format="2">
  <advance width="650"/>
  <unicode hex="0059"/>
  <outline>
    <contour>
      <point x="310" y="0.0" type="line"/>
      <point x="310" y="630.0" type="line"/>
      <point x="340" y="630.0" type="line"/>
      <point x="340" y="0.0" type="line"/>
    </contour>
    <contour>
      <point x="311" y="600.0" type="line"/>
      <point x="20.0" y="1500.0" type="line"/>
      <point x="52" y="1500.0" type="line"/>
      <point x="326" y="653" type="line"/>
      <point x="600" y="1500.0" type="line"/>
      <point x="630.0" y="1500.0" type="line"/>
      <point x="337" y="600.0" type="line"/>
    </contour>
  </outline>
</glyph>
<glyph name="Z" format="2">
  <advance width="604"/>
  <unicode hex="005A"/>
  <outline>
    <contour>
      <point x="590.0" y="0.0" type="line"/>
      <point x="44.0" y="0.0" type="line"/>
      <point x="39.0" y="26" type="line"/>
      <point x="518.0" y="1472" type="line"/>
      <point x="74.0" y="1472" type="line"/>
      <point x="74.0" y="1500.0" type="line"/>
      <point x="550.0" y="1500.0" type="line"/>
      <point x="550.0" y="1475" type="line"/>
      <point x="73.0" y="28" type="line"/>
      <point x="590.0" y="28" type="line"/>
    </contour>
  </outline>
</glyph>
<glyph name="bracketright" format="2">
  <advance width="324"/>
  <unicode hex="005D"/>
  <outline>
    <contour>
      <point x="142" y="-280" type="line"/>
      <point x="179" y="-280" type="line"/>
      <point x="179" y="1500" type="line"/>
      <point x="142" y="1500" type="line"/>
    </contour>
    <contour>
      <point x="-52" y="-280" type="line"/>
      <point x="-52" y="-307" type="line"/>
      <point x="155" y="-307" type="line"/>
      <point x="155" y="-280" type="line"/>
    </contour>
    <contour>
      <point x="-52" y="1527" type="line"/>
      <point x="-52" y="1500" type="line"/>
      <point x="160" y="1500" type="line"/>
      <point x="160" y="1527" type="line"/>
    </contour>
  </outline>
</glyph>
<glyph name="a" format="2">
  <advance width="671"/>
  <unicode hex="0061"/>
  <outline>
    <contour>
      <point x="95" y="819" type="line"/>
      <point x="119" y="887"/>
      <point x="259" y="992"/>
      <point x="353" y="992.0" type="qcurve" smooth="yes"/>
      <point x="448.0" y="992.0"/>
      <point x="562.0" y="884.0"/>
      <point x="562" y="780" type="qcurve" smooth="yes"/>
      <point x="562" y="0" type="line"/>
      <point x="532.0" y="0.0" type="line"/>
      <point x="532.0" y="772" type="line" smooth="yes"/>
      <point x="532.0" y="858.0"/>
      <point x="454.0" y="962"/>
      <point x="352.0" y="962" type="qcurve" smooth="yes"/>
      <point x="256.0" y="962"/>
      <point x="144.0" y="871"/>
      <point x="115.0" y="808" type="qcurve"/>
    </contour>
    <contour>
      <point x="541" y="73.0" type="line"/>
      <point x="519" y="42"/>
      <point x="408" y="-13.0"/>
      <point x="321" y="-13.0" type="qcurve" smooth="yes"/>
      <point x="210" y="-13"/>
      <point x="55" y="136"/>
      <point x="55" y="311.0" type="qcurve" smooth="yes"/>
      <point x="55" y="490.0"/>
      <point x="221.0" y="649.0"/>
      <point x="341" y="649.0" type="qcurve" smooth="yes"/>
      <point x="416" y="649"/>
      <point x="515" y="627.0"/>
      <point x="545" y="615.0" type="qcurve"/>
      <point x="545.0" y="578" type="line"/>
      <point x="511.0" y="593"/>
      <point x="430" y="621"/>
      <point x="345.0" y="620" type="qcurve" smooth="yes"/>
      <point x="228" y="619.0"/>
      <point x="85" y="472.0"/>
      <point x="85.0" y="312" type="qcurve" smooth="yes"/>
      <point x="85" y="156"/>
      <point x="228" y="16"/>
      <point x="322" y="16.0" type="qcurve" smooth="yes"/>
      <point x="403.0" y="16.0"/>
      <point x="512.0" y="71"/>
      <point x="541.0" y="105" type="qcurve"/>
    </contour>
  </outline>
</glyph>
<glyph name="b" format="2">
  <advance width="703"/>
  <unicode hex="0062"/>
  <outline>
    <contour>
      <point x="116" y="0" type="line"/>
      <point x="116" y="1500" type="line"/>
      <point x="146" y="1500" type="line"/>
      <point x="146" y="0" type="line"/>
    </contour>
    <contour>
      <point x="127.0" y="674" type="line" smooth="yes"/>
      <point x="127" y="828"/>
      <point x="260.0" y="992.0"/>
      <point x="364.0" y="992" type="qcurve" smooth="yes"/>
      <point x="375.0" y="992" type="line" smooth="yes"/>
      <point x="489.0" y="992"/>
      <point x="618.0" y="836"/>
      <point x="618.0" y="708" type="qcurve" smooth="yes"/>
      <point x="618" y="287.0" type="line" smooth="yes"/>
      <point x="618" y="148.0"/>
      <point x="476.0" y="-11.0"/>
      <point x="375" y="-11.0" type="qcurve" smooth="yes"/>
      <point x="366" y="-11.0" type="line" smooth="yes"/>
      <point x="275.0" y="-11"/>
      <point x="127" y="140.0"/>
      <point x="127" y="312.0" type="qcurve" smooth="yes"/>
    </contour>
    <contour>
      <point x="146.0" y="703" type="qcurve" smooth="yes"/>
      <point x="146.0" y="285" type="line" smooth="yes"/>
      <point x="146" y="165.0"/>
      <point x="283.0" y="18"/>
      <point x="366.0" y="18" type="qcurve" smooth="yes"/>
      <point x="380.0" y="18" type="line" smooth="yes"/>
      <point x="461.0" y="18.0"/>
      <point x="588.0" y="158.0"/>
      <point x="588.0" y="294" type="qcurve" smooth="yes"/>
      <point x="588.0" y="699" type="line" smooth="yes"/>
      <point x="588.0" y="827"/>
      <point x="467.0" y="962"/>
      <point x="369.0" y="962" type="qcurve" smooth="yes"/>
      <point x="360.0" y="962" type="line" smooth="yes"/>
      <point x="261.0" y="962"/>
      <point x="146.0" y="793"/>
    </contour>
  </outline>
</glyph>
<glyph name="c" format="2">
  <advance width="623"/>
  <unicode hex="0063"/>
  <outline>
    <contour>
      <point x="586" y="343.0" type="line"/>
      <point x="586.0" y="300" type="line" smooth="yes"/>
      <point x="586" y="130"/>
      <point x="452.0" y="-16.0"/>
      <point x="347" y="-16.0" type="qcurve" smooth="yes"/>
      <point x="337" y="-16.0" type="line" smooth="yes"/>
      <point x="219.0" y="-16"/>
      <point x="85" y="126.0"/>
      <point x="85" y="309.0" type="qcurve" smooth="yes"/>
      <point x="85" y="698.0" type="line" smooth="yes"/>
      <point x="85" y="844"/>
      <point x="217" y="992"/>
      <point x="326" y="992.0" type="qcurve" smooth="yes"/>
      <point x="336" y="992.0" type="line" smooth="yes"/>
      <point x="448" y="992"/>
      <point x="586.0" y="852"/>
      <point x="586" y="734.0" type="qcurve" smooth="yes"/>
      <point x="586" y="649.0" type="line"/>
      <point x="555" y="649.0" type="line"/>
      <point x="555.0" y="723" type="line" smooth="yes"/>
      <point x="555.0" y="838.0"/>
      <point x="438" y="964.0"/>
      <point x="334" y="964.0" type="qcurve" smooth="yes"/>
      <point x="330.0" y="964" type="line" smooth="yes"/>
      <point x="232.0" y="964.0"/>
      <point x="115" y="840"/>
      <point x="115" y="715" type="qcurve" smooth="yes"/>
      <point x="115.0" y="289" type="line" smooth="yes"/>
      <point x="115.0" y="148.0"/>
      <point x="229.0" y="11"/>
      <point x="337" y="11.0" type="qcurve" smooth="yes"/>
      <point x="342" y="11" type="line" smooth="yes"/>
      <point x="448.0" y="11.0"/>
      <point x="556.0" y="148.0"/>
      <point x="556" y="286" type="qcurve" smooth="yes"/>
      <point x="556" y="343.0" type="line"/>
    </contour>
  </outline>
</glyph>
<glyph name="d" format="2">
  <advance width="703"/>
  <unicode hex="0064"/>
  <outline>
    <contour>
      <point x="587.0" y="0.0" type="line"/>
      <point x="557.0" y="0.0" type="line"/>
      <point x="557.0" y="1500.0" type="line"/>
      <point x="587.0" y="1500.0" type="line"/>
    </contour>
    <contour>
      <point x="576.0" y="674.0" type="qcurve" smooth="yes"/>
      <point x="576.0" y="312.0" type="line" smooth="yes"/>
      <point x="576.0" y="140.0"/>
      <point x="428.0" y="-11.0"/>
      <point x="337.0" y="-11.0" type="qcurve" smooth="yes"/>
      <point x="328.0" y="-11.0" type="line" smooth="yes"/>
      <point x="227.0" y="-11.0"/>
      <point x="85.0" y="148.0"/>
      <point x="85.0" y="287.0" type="qcurve" smooth="yes"/>
      <point x="85.0" y="708.0" type="line" smooth="yes"/>
      <point x="85.0" y="836.0"/>
      <point x="214.0" y="992.0"/>
      <point x="328.0" y="992.0" type="qcurve" smooth="yes"/>
      <point x="339.0" y="992.0" type="line" smooth="yes"/>
      <point x="443.0" y="992.0"/>
      <point x="576.0" y="828.0"/>
    </contour>
    <contour>
      <point x="557.0" y="703.0" type="line" smooth="yes"/>
      <point x="557.0" y="793.0"/>
      <point x="442.0" y="962.0"/>
      <point x="343.0" y="962.0" type="qcurve" smooth="yes"/>
      <point x="334.0" y="962.0" type="line" smooth="yes"/>
      <point x="236.0" y="962.0"/>
      <point x="115.0" y="827.0"/>
      <point x="115.0" y="699.0" type="qcurve" smooth="yes"/>
      <point x="115.0" y="294.0" type="line" smooth="yes"/>
      <point x="115.0" y="158.0"/>
      <point x="242.0" y="18.0"/>
      <point x="323.0" y="18.0" type="qcurve" smooth="yes"/>
      <point x="337.0" y="18.0" type="line" smooth="yes"/>
      <point x="420.0" y="18.0"/>
      <point x="557.0" y="165.0"/>
      <point x="557.0" y="285.0" type="qcurve" smooth="yes"/>
    </contour>
  </outline>
</glyph>
<glyph name="e" format="2">
  <advance width="657"/>
  <unicode hex="0065"/>
  <outline>
    <contour>
      <point x="592" y="308.0" type="line"/>
      <point x="592" y="258.0" type="line" smooth="yes"/>
      <point x="592" y="131"/>
      <point x="452.0" y="-16.0"/>
      <point x="340" y="-16" type="qcurve" smooth="yes"/>
      <point x="327" y="-16.0" type="line" smooth="yes"/>
      <point x="221.0" y="-16"/>
      <point x="85" y="128.0"/>
      <point x="85" y="306.0" type="qcurve" smooth="yes"/>
      <point x="85" y="698.0" type="line" smooth="yes"/>
      <point x="85.0" y="846.0"/>
      <point x="219.0" y="992.0"/>
      <point x="327" y="992.0" type="qcurve" smooth="yes"/>
      <point x="344" y="992.0" type="line" smooth="yes"/>
      <point x="450.0" y="992.0"/>
      <point x="594.0" y="844"/>
      <point x="594" y="695.0" type="qcurve" smooth="yes"/>
      <point x="594" y="510.0" type="line"/>
      <point x="104" y="510" type="line"/>
      <point x="104" y="538" type="line"/>
      <point x="564" y="538.0" type="line"/>
      <point x="564" y="704.0" type="line" smooth="yes"/>
      <point x="564" y="824"/>
      <point x="440" y="964"/>
      <point x="338" y="964.0" type="qcurve"/>
      <point x="334" y="964.0" type="line" smooth="yes"/>
      <point x="229" y="964"/>
      <point x="115.0" y="838.0"/>
      <point x="115" y="714.0" type="qcurve" smooth="yes"/>
      <point x="115" y="286.0" type="line" smooth="yes"/>
      <point x="115" y="151.0"/>
      <point x="228" y="11"/>
      <point x="329" y="11.0" type="qcurve" smooth="yes"/>
      <point x="334" y="11" type="line" smooth="yes"/>
      <point x="457" y="11"/>
      <point x="563.0" y="141.0"/>
      <point x="563" y="278.0" type="qcurve" smooth="yes"/>
      <point x="563" y="308.0" type="line"/>
    </contour>
  </outline>
</glyph>
<glyph name="f" format="2">
  <advance width="483"/>
  <unicode hex="0066"/>
  <outline>
    <contour>
      <point x="431" y="952" type="line"/>
      <point x="59" y="952" type="line"/>
      <point x="59" y="980" type="line"/>
      <point x="431" y="980" type="line"/>
    </contour>
    <contour>
      <point x="240" y="1379" type="qcurve" smooth="yes"/>
      <point x="240.0" y="0.0" type="line"/>
      <point x="210.0" y="0.0" type="line"/>
      <point x="210.0" y="1397" type="line" smooth="yes"/>
      <point x="210.0" y="1462.0"/>
      <point x="280" y="1535"/>
      <point x="333.0" y="1535" type="qcurve" smooth="yes"/>
      <point x="382" y="1535"/>
      <point x="453.0" y="1512"/>
      <point x="466.0" y="1505" type="qcurve"/>
      <point x="459" y="1478" type="line"/>
      <point x="447.0" y="1486.0"/>
      <point x="379" y="1507.0"/>
      <point x="338" y="1507.0" type="qcurve" smooth="yes"/>
      <point x="296" y="1507"/>
      <point x="240.0" y="1450.0"/>
    </contour>
  </outline>
</glyph>
<glyph name="g" format="2">
  <advance width="703"/>
  <unicode hex="0067"/>
  <outline>
    <contour>
      <point x="576.0" y="674.0" type="qcurve" smooth="yes"/>
      <point x="576.0" y="312.0" type="line" smooth="yes"/>
      <point x="576.0" y="140.0"/>
      <point x="428.0" y="-11.0"/>
      <point x="337.0" y="-11.0" type="qcurve" smooth="yes"/>
      <point x="328.0" y="-11.0" type="line" smooth="yes"/>
      <point x="227.0" y="-11.0"/>
      <point x="85.0" y="148.0"/>
      <point x="85.0" y="287.0" type="qcurve" smooth="yes"/>
      <point x="85.0" y="708.0" type="line" smooth="yes"/>
      <point x="85.0" y="836.0"/>
      <point x="214.0" y="992.0"/>
      <point x="328.0" y="992.0" type="qcurve" smooth="yes"/>
      <point x="339.0" y="992.0" type="line" smooth="yes"/>
      <point x="443.0" y="992.0"/>
      <point x="576.0" y="828.0"/>
    </contour>
    <contour>
      <point x="557.0" y="703.0" type="line" smooth="yes"/>
      <point x="557.0" y="793.0"/>
      <point x="442.0" y="962.0"/>
      <point x="343.0" y="962.0" type="qcurve" smooth="yes"/>
      <point x="334.0" y="962.0" type="line" smooth="yes"/>
      <point x="236.0" y="962.0"/>
      <point x="115.0" y="827.0"/>
      <point x="115.0" y="699.0" type="qcurve" smooth="yes"/>
      <point x="115.0" y="294.0" type="line" smooth="yes"/>
      <point x="115.0" y="158.0"/>
      <point x="242.0" y="18.0"/>
      <point x="323.0" y="18.0" type="qcurve" smooth="yes"/>
      <point x="337.0" y="18.0" type="line" smooth="yes"/>
      <point x="420.0" y="18.0"/>
      <point x="557.0" y="165.0"/>
      <point x="557.0" y="285.0" type="qcurve" smooth="yes"/>
    </contour>
    <contour>
      <point x="141" y="-504" type="line"/>
      <point x="149" y="-506"/>
      <point x="210" y="-514"/>
      <point x="238" y="-514" type="qcurve" smooth="yes"/>
      <point x="390" y="-514"/>
      <point x="557.0" y="-278"/>
      <point x="557.0" y="-84.0" type="qcurve" smooth="yes"/>
      <point x="557.0" y="1000.0" type="line"/>
      <point x="587.0" y="1000.0" type="line"/>
      <point x="587.0" y="-75.0" type="line" smooth="yes"/>
      <point x="587" y="-302"/>
      <point x="393" y="-542"/>
      <point x="238" y="-542" type="qcurve" smooth="yes"/>
      <point x="203" y="-542"/>
      <point x="149" y="-534"/>
      <point x="139" y="-532" type="qcurve"/>
    </contour>
  </outline>
</glyph>
<glyph name="h" format="2">
  <advance width="686"/>
  <unicode hex="0068"/>
  <outline>
    <contour>
      <point x="116" y="0" type="line"/>
      <point x="116" y="1500" type="line"/>
      <point x="146" y="1500" type="line"/>
      <point x="146" y="0" type="line"/>
    </contour>
    <contour>
      <point x="130.0" y="783" type="line"/>
      <point x="144.0" y="869"/>
      <point x="279.0" y="992"/>
      <point x="374.0" y="992" type="qcurve" smooth="yes"/>
      <point x="476" y="992"/>
      <point x="576" y="884"/>
      <point x="577.0" y="781" type="qcurve" smooth="yes"/>
      <point x="577" y="0" type="line"/>
      <point x="547.0" y="0.0" type="line"/>
      <point x="547.0" y="775" type="line" smooth="yes"/>
      <point x="547.0" y="862"/>
      <point x="461" y="962"/>
      <point x="375" y="962.0" type="qcurve" smooth="yes"/>
      <point x="290" y="962"/>
      <point x="167.0" y="853.0"/>
      <point x="141.0" y="774" type="qcurve"/>
    </contour>
  </outline>
</glyph>
<glyph name="i" format="2">
  <advance width="353"/>
  <unicode hex="0069"/>
  <outline>
    <contour>
      <point x="177" y="0" type="line"/>
      <point x="177" y="980" type="line"/>
      <point x="207" y="980" type="line"/>
      <point x="207" y="0" type="line"/>
    </contour>
    <contour>
      <point x="186.0" y="1212" type="line" smooth="yes"/>
      <point x="208" y="1212"/>
      <point x="232" y="1237"/>
      <point x="232" y="1259" type="qcurve" smooth="yes"/>
      <point x="232" y="1261" type="line" smooth="yes"/>
      <point x="232" y="1282"/>
      <point x="208" y="1309.0"/>
      <point x="186.0" y="1309.0" type="qcurve" smooth="yes"/>
      <point x="184" y="1309.0" type="line" smooth="yes"/>
      <point x="163" y="1309.0"/>
      <point x="140" y="1282"/>
      <point x="140" y="1261" type="qcurve" smooth="yes"/>
      <point x="140" y="1259" type="line" smooth="yes"/>
      <point x="140" y="1237"/>
      <point x="163" y="1212"/>
      <point x="184" y="1212" type="qcurve" smooth="yes"/>
    </contour>
    <contour>
      <point x="191" y="952" type="line"/>
      <point x="11" y="952" type="line"/>
      <point x="11" y="980" type="line"/>
      <point x="191" y="980" type="line"/>
    </contour>
  </outline>
</glyph>
<glyph name="j" format="2">
  <advance width="355"/>
  <unicode hex="006A"/>
  <outline>
    <contour>
      <point x="88.0" y="-291.0" type="line" smooth="yes"/>
      <point x="88.0" y="-444.0"/>
      <point x="57" y="-500"/>
      <point x="15" y="-500" type="qcurve" smooth="yes"/>
      <point x="-70" y="-500"/>
      <point x="-110" y="-491"/>
      <point x="-124" y="-484" type="qcurve"/>
      <point x="-109" y="-513" type="line"/>
      <point x="-100" y="-518"/>
      <point x="-64" y="-532"/>
      <point x="-36" y="-532" type="qcurve" smooth="yes"/>
      <point x="53" y="-532"/>
      <point x="129" y="-411.0"/>
      <point x="129.0" y="-269.0" type="qcurve" smooth="yes"/>
      <point x="129.0" y="980.0" type="line"/>
      <point x="88.0" y="980.0" type="line"/>
    </contour>
    <contour>
      <point x="118" y="1315" type="line" smooth="yes"/>
      <point x="121" y="1315"/>
      <point x="121" y="1318"/>
      <point x="121" y="1322" type="qcurve" smooth="yes"/>
      <point x="121" y="1322" type="line" smooth="yes"/>
      <point x="121" y="1326"/>
      <point x="120" y="1330.0"/>
      <point x="118" y="1330.0" type="qcurve" smooth="yes"/>
      <point x="118" y="1330.0" type="line" smooth="yes"/>
      <point x="115" y="1330.0"/>
      <point x="114" y="1326"/>
      <point x="114" y="1322" type="qcurve" smooth="yes"/>
      <point x="114" y="1322" type="line" smooth="yes"/>
      <point x="114" y="1319"/>
      <point x="116" y="1315"/>
      <point x="118" y="1315" type="qcurve" smooth="yes"/>
    </contour>
    <contour>
      <point x="163" y="945" type="line"/>
      <point x="333" y="925" type="line"/>
      <point x="333" y="960" type="line"/>
      <point x="163" y="980" type="line"/>
    </contour>
  </outline>
</glyph>
<glyph name="k" format="2">
  <advance width="727"/>
  <unicode hex="006B"/>
  <outline>
    <contour>
      <point x="118" y="0" type="line"/>
      <point x="118" y="1500" type="line"/>
      <point x="78" y="1500" type="line"/>
      <point x="78" y="0" type="line"/>
    </contour>
    <contour>
      <point x="421" y="617" type="line"/>
      <point x="60" y="187" type="line"/>
      <point x="60" y="252" type="line"/>
      <point x="343.0" y="584.0" type="line"/>
      <point x="613" y="980" type="line"/>
      <point x="564" y="980" type="line"/>
      <point x="377" y="597" type="line"/>
    </contour>
    <contour>
      <point x="390" y="623" type="line"/>
      <point x="583" y="0" type="line"/>
      <point x="642" y="0" type="line"/>
      <point x="442" y="598" type="line"/>
    </contour>
  </outline>
</glyph>
<glyph name="l" format="2">
  <advance width="120"/>
  <unicode hex="006C"/>
  <outline>
    <contour>
      <point x="124" y="-191" type="qcurve" smooth="yes"/>
      <point x="124" y="1500" type="line"/>
      <point x="85" y="1500" type="line"/>
      <point x="105" y="0" type="line"/>
      <point x="32" y="-4"/>
      <point x="124.0" y="-147.0"/>
    </contour>
    <contour>
      <point x="-134" y="60" type="line"/>
      <point x="-5" y="9" type="line"/>
      <point x="-5" y="-36" type="line"/>
      <point x="-137" y="-11" type="line"/>
    </contour>
  </outline>
</glyph>
<glyph name="m" format="2">
  <advance width="967"/>
  <unicode hex="006D"/>
  <outline>
    <contour>
      <point x="118" y="0" type="line"/>
      <point x="118" y="980" type="line"/>
      <point x="78" y="980" type="line"/>
      <point x="78" y="0" type="line"/>
    </contour>
    <contour>
      <point x="94" y="765" type="line"/>
      <point x="72" y="829"/>
      <point x="231" y="992"/>
      <point x="377.0" y="992.0" type="qcurve" smooth="yes"/>
      <point x="466" y="992"/>
      <point x="477" y="883"/>
      <point x="477" y="770.0" type="qcurve" smooth="yes"/>
      <point x="477" y="0.0" type="line"/>
      <point x="517.0" y="0.0" type="line"/>
      <point x="517" y="797.0" type="line" smooth="yes"/>
      <point x="517.0" y="927.0"/>
      <point x="402" y="1036"/>
      <point x="332.0" y="1036.0" type="qcurve" smooth="yes"/>
      <point x="252" y="1036"/>
      <point x="107" y="920"/>
      <point x="80" y="807" type="qcurve"/>
    </contour>
    <contour>
      <point x="450" y="769" type="line"/>
      <point x="430" y="841"/>
      <point x="581" y="992"/>
      <point x="734.0" y="992.0" type="qcurve" smooth="yes"/>
      <point x="812.0" y="992"/>
      <point x="861" y="874"/>
      <point x="861" y="761.0" type="qcurve" smooth="yes"/>
      <point x="861" y="0.0" type="line"/>
      <point x="901.0" y="0.0" type="line"/>
      <point x="901.0" y="794" type="line" smooth="yes"/>
      <point x="901.0" y="925.0"/>
      <point x="751.0" y="1035"/>
      <point x="691.0" y="1035.0" type="qcurve" smooth="yes"/>
      <point x="611" y="1035"/>
      <point x="473" y="937"/>
      <point x="441" y="819" type="qcurve"/>
    </contour>
  </outline>
</glyph>
<glyph name="o" format="2">
  <advance width="671"/>
  <unicode hex="006F"/>
  <outline>
    <contour>
      <point x="322" y="-16" type="line" smooth="yes"/>
      <point x="218.0" y="-16"/>
      <point x="85" y="127"/>
      <point x="85" y="308" type="qcurve" smooth="yes"/>
      <point x="85" y="698" type="line" smooth="yes"/>
      <point x="85" y="845"/>
      <point x="219.0" y="992.0"/>
      <point x="320" y="992" type="qcurve" smooth="yes"/>
      <point x="343" y="992" type="line" smooth="yes"/>
      <point x="447.0" y="992.0"/>
      <point x="586" y="844"/>
      <point x="586" y="703" type="qcurve" smooth="yes"/>
      <point x="586" y="312" type="line" smooth="yes"/>
      <point x="586" y="128"/>
      <point x="449.0" y="-16.0"/>
      <point x="345" y="-16" type="qcurve" smooth="yes"/>
    </contour>
    <contour>
      <point x="337.0" y="11" type="line" smooth="yes"/>
      <point x="449.0" y="11.0"/>
      <point x="556" y="148"/>
      <point x="556.0" y="289" type="qcurve" smooth="yes"/>
      <point x="556" y="716" type="line" smooth="yes"/>
      <point x="556" y="838"/>
      <point x="442.0" y="964.0"/>
      <point x="336" y="964" type="qcurve" smooth="yes"/>
      <point x="325" y="964.0" type="line" smooth="yes"/>
      <point x="229.0" y="964.0"/>
      <point x="115" y="838"/>
      <point x="115" y="716" type="qcurve" smooth="yes"/>
      <point x="115.0" y="289" type="line" smooth="yes"/>
      <point x="115" y="149"/>
      <point x="229.0" y="11"/>
      <point x="328.0" y="11" type="qcurve" smooth="yes"/>
    </contour>
  </outline>
</glyph>
<glyph name="r" format="2">
  <advance width="504"/>
  <unicode hex="0072"/>
  <outline>
    <contour>
      <point x="116" y="0" type="line"/>
      <point x="116" y="979" type="line"/>
      <point x="146" y="979" type="line"/>
      <point x="146" y="0" type="line"/>
    </contour>
    <contour>
      <point x="130" y="775" type="line"/>
      <point x="168" y="885"/>
      <point x="327" y="991"/>
      <point x="417" y="991" type="qcurve" smooth="yes"/>
      <point x="443" y="991"/>
      <point x="479" y="988"/>
      <point x="491" y="986" type="qcurve"/>
      <point x="491" y="955" type="line"/>
      <point x="481" y="957"/>
      <point x="440" y="960"/>
      <point x="414" y="960" type="qcurve" smooth="yes"/>
      <point x="330" y="960"/>
      <point x="188" y="864"/>
      <point x="143" y="758" type="qcurve"/>
    </contour>
  </outline>
</glyph>
<glyph name="s" format="2">
  <advance width="655"/>
  <unicode hex="0073"/>
  <outline>
    <contour>
      <point x="515.0" y="261" type="line" smooth="yes"/>
      <point x="515.0" y="352.0"/>
      <point x="362.0" y="474"/>
      <point x="220.0" y="534" type="qcurve" smooth="yes"/>
      <point x="92" y="595"/>
      <point x="16.0" y="697"/>
      <point x="16.0" y="770.0" type="qcurve" smooth="yes"/>
      <point x="16.0" y="782.0" type="line" smooth="yes"/>
      <point x="16.0" y="880"/>
      <point x="141.0" y="992.0"/>
      <point x="244.0" y="992.0" type="qcurve" smooth="yes"/>
      <point x="250.0" y="992.0" type="line" smooth="yes"/>
      <point x="317.0" y="992.0"/>
      <point x="462" y="868"/>
      <point x="461.0" y="760.0" type="qcurve" smooth="yes"/>
      <point x="458.0" y="761.0" type="line"/>
      <point x="477.0" y="761.0" type="line"/>
      <point x="476.0" y="752.0" type="line" smooth="yes"/>
      <point x="471.0" y="866"/>
      <point x="363" y="1015"/>
      <point x="258.0" y="1015.0" type="qcurve" smooth="yes"/>
      <point x="246.0" y="1015.0" type="line" smooth="yes"/>
      <point x="122" y="1015"/>
      <point x="-24" y="874.0"/>
      <point x="-24.0" y="763.0" type="qcurve" smooth="yes"/>
      <point x="-24.0" y="759.0" type="line" smooth="yes"/>
      <point x="-24" y="663.0"/>
      <point x="128.0" y="548"/>
      <point x="247.0" y="499.0" type="qcurve" smooth="yes"/>
      <point x="359.0" y="451"/>
      <point x="480.0" y="314.0"/>
      <point x="480.0" y="223.0" type="qcurve" smooth="yes"/>
      <point x="480.0" y="248.0" type="line" smooth="yes"/>
      <point x="480.0" y="150"/>
      <point x="355.0" y="-12.0"/>
      <point x="225.0" y="-12" type="qcurve" smooth="yes"/>
      <point x="213.0" y="-12.0" type="line" smooth="yes"/>
      <point x="131.0" y="-12"/>
      <point x="5.0" y="137"/>
      <point x="0.0" y="262" type="qcurve" smooth="yes"/>
      <point x="-1.0" y="227.0" type="line"/>
      <point x="-29.0" y="227.0" type="line"/>
      <point x="-28.0" y="280" type="line" smooth="yes"/>
      <point x="-20" y="93"/>
      <point x="111.0" y="-24.0"/>
      <point x="219.0" y="-24.0" type="qcurve" smooth="yes"/>
      <point x="221.0" y="-24" type="line" smooth="yes"/>
      <point x="419.0" y="-24.0"/>
      <point x="515" y="137"/>
      <point x="515.0" y="253" type="qcurve" smooth="yes"/>
    </contour>
  </outline>
</glyph>
<glyph name="t" format="2">
  <advance width="454"/>
  <unicode hex="0074"/>
  <outline>
    <contour>
      <point x="432" y="952" type="line"/>
      <point x="30" y="952" type="line"/>
      <point x="30" y="980" type="line"/>
      <point x="432" y="980" type="line"/>
    </contour>
    <contour>
      <point x="205.0" y="179" type="line" smooth="yes"/>
      <point x="205" y="88.0"/>
      <point x="294" y="20.0"/>
      <point x="344" y="20.0" type="qcurve" smooth="yes"/>
      <point x="376" y="20.0"/>
      <point x="419" y="35.0"/>
      <point x="435.0" y="42.0" type="qcurve"/>
      <point x="433" y="10.0" type="line"/>
      <point x="422" y="4.0"/>
      <point x="380" y="-9"/>
      <point x="344" y="-9" type="qcurve" smooth="yes"/>
      <point x="280" y="-9.0"/>
      <point x="175" y="78.0"/>
      <point x="175" y="191.0" type="qcurve" smooth="yes"/>
      <point x="175" y="1233.0" type="line"/>
      <point x="205" y="1233.0" type="line"/>
    </contour>
  </outline>
</glyph>
<glyph name="u" format="2">
  <advance width="686"/>
  <unicode hex="0075"/>
  <outline>
    <contour>
      <point x="570.0" y="980.0" type="line"/>
      <point x="570.0" y="0.0" type="line"/>
      <point x="540.0" y="0.0" type="line"/>
      <point x="540.0" y="980.0" type="line"/>
    </contour>
    <contour>
      <point x="556.0" y="197.0" type="line"/>
      <point x="542.0" y="111.0"/>
      <point x="407.0" y="-12.0"/>
      <point x="312.0" y="-12.0" type="qcurve" smooth="yes"/>
      <point x="210.0" y="-12.0"/>
      <point x="110.0" y="96.0"/>
      <point x="109.0" y="199.0" type="qcurve" smooth="yes"/>
      <point x="109.0" y="980.0" type="line"/>
      <point x="139.0" y="980.0" type="line"/>
      <point x="139.0" y="205.0" type="line" smooth="yes"/>
      <point x="139.0" y="118.0"/>
      <point x="225.0" y="18.0"/>
      <point x="311.0" y="18.0" type="qcurve" smooth="yes"/>
      <point x="396.0" y="18.0"/>
      <point x="519.0" y="127.0"/>
      <point x="545.0" y="206.0" type="qcurve"/>
    </contour>
  </outline>
</glyph>
<glyph name="v" format="2">
  <advance width="601"/>
  <unicode hex="0076"/>
  <outline>
    <contour>
      <point x="288" y="0" type="line"/>
      <point x="40" y="980" type="line"/>
      <point x="71" y="980" type="line"/>
      <point x="303" y="50" type="line"/>
      <point x="532" y="980" type="line"/>
      <point x="561" y="980" type="line"/>
      <point x="316" y="0" type="line"/>
    </contour>
  </outline>
</glyph>
<glyph name="w" format="2">
  <advance width="867"/>
  <unicode hex="0077"/>
  <outline>
    <contour>
      <point x="219" y="0" type="line"/>
      <point x="20" y="980" type="line"/>
      <point x="50" y="980" type="line"/>
      <point x="236" y="76" type="line"/>
      <point x="415" y="980" type="line"/>
      <point x="446" y="980" type="line"/>
      <point x="637" y="78" type="line"/>
      <point x="820" y="980" type="line"/>
      <point x="847" y="980" type="line"/>
      <point x="651" y="0" type="line"/>
      <point x="621" y="0" type="line"/>
      <point x="430" y="923" type="line"/>
      <point x="249" y="0" type="line"/>
    </contour>
  </outline>
</glyph>
<glyph name="x" format="2">
  <advance width="480"/>
  <unicode hex="0078"/>
  <outline>
    <contour>
      <point x="22" y="0" type="line"/>
      <point x="480" y="980" type="line"/>
      <point x="429" y="980" type="line"/>
      <point x="-30" y="0" type="line"/>
    </contour>
    <contour>
      <point x="521" y="0" type="line"/>
      <point x="50" y="980" type="line"/>
      <point x="-13" y="980" type="line"/>
      <point x="458" y="0" type="line"/>
    </contour>
  </outline>
</glyph>
<glyph name="y" format="2">
  <advance width="600"/>
  <unicode hex="0079"/>
  <outline>
    <contour>
      <point x="286" y="15" type="qcurve"/>
      <point x="40" y="980" type="line"/>
      <point x="72" y="980" type="line"/>
      <point x="304" y="49" type="line"/>
      <point x="532" y="980" type="line"/>
      <point x="563" y="980" type="line"/>
      <point x="317" y="1" type="line" smooth="yes"/>
      <point x="250" y="-264"/>
      <point x="117" y="-500"/>
      <point x="27" y="-500" type="qcurve" smooth="yes"/>
      <point x="-15" y="-500"/>
      <point x="-61" y="-494"/>
      <point x="-89" y="-480" type="qcurve"/>
      <point x="-78" y="-451" type="line"/>
      <point x="-57" y="-458"/>
      <point x="-16" y="-472"/>
      <point x="18" y="-472.0" type="qcurve" smooth="yes"/>
      <point x="95" y="-472"/>
      <point x="225" y="-239"/>
    </contour>
  </outline>
</glyph>
<glyph name="z" format="2">
  <advance width="523"/>
  <unicode hex="007A"/>
  <outline>
    <contour>
      <point x="494" y="0" type="line"/>
      <point x="40" y="0" type="line"/>
      <point x="35" y="25" type="line"/>
      <point x="447" y="952" type="line"/>
      <point x="56" y="952" type="line"/>
      <point x="56" y="980" type="line"/>
      <point x="482" y="980" type="line"/>
      <point x="482" y="955" type="line"/>
      <point x="68" y="28" type="line"/>
      <point x="494" y="28" type="line"/>
    </contour>
  </outline>
</glyph>
<glyph name="braceright" format="2">
  <advance width="324"/>
  <unicode hex="007D"/>
  <outline>
    <contour>
      <point x="322" y="615" type="qcurve"/>
      <point x="322" y="586" type="line"/>
      <point x="226" y="601"/>
      <point x="135.0" y="692.0"/>
      <point x="135.0" y="766.0" type="qcurve" smooth="yes"/>
      <point x="135" y="817"/>
      <point x="183" y="907"/>
      <point x="217" y="949" type="qcurve" smooth="yes"/>
      <point x="251" y="991"/>
      <point x="314" y="1100"/>
      <point x="314.0" y="1191.0" type="qcurve" smooth="yes"/>
      <point x="314" y="1283"/>
      <point x="140" y="1476"/>
      <point x="17" y="1526" type="qcurve"/>
      <point x="92" y="1508" type="line"/>
      <point x="195" y="1473"/>
      <point x="360" y="1242"/>
      <point x="360.0" y="1176.0" type="qcurve" smooth="yes"/>
      <point x="360" y="1112"/>
      <point x="328" y="1025"/>
      <point x="289.0" y="979.0" type="qcurve" smooth="yes"/>
      <point x="248.0" y="930.0"/>
      <point x="177.0" y="836.0"/>
      <point x="177.0" y="773.0" type="qcurve" smooth="yes"/>
      <point x="177.0" y="726.0"/>
      <point x="272.0" y="621.0"/>
      <point x="379.0" y="603.0" type="qcurve"/>
      <point x="287.0" y="594.0"/>
      <point x="182.0" y="508.0"/>
      <point x="182.0" y="462.0" type="qcurve" smooth="yes"/>
      <point x="182" y="386"/>
      <point x="259.0" y="295.0"/>
      <point x="301.0" y="241.0" type="qcurve" smooth="yes"/>
      <point x="341" y="187"/>
      <point x="366" y="110"/>
      <point x="366.0" y="32.0" type="qcurve" smooth="yes"/>
      <point x="366.0" y="-29.0"/>
      <point x="211.0" y="-226.0"/>
      <point x="96.0" y="-289.0" type="qcurve"/>
      <point x="17" y="-304" type="line"/>
      <point x="151" y="-242"/>
      <point x="318" y="-63"/>
      <point x="318.0" y="28.0" type="qcurve" smooth="yes"/>
      <point x="318" y="134"/>
      <point x="263" y="230"/>
      <point x="226" y="278" type="qcurve" smooth="yes"/>
      <point x="193" y="321"/>
      <point x="141" y="415"/>
      <point x="141.0" y="453.0" type="qcurve" smooth="yes"/>
      <point x="141" y="527"/>
      <point x="208" y="612"/>
    </contour>
  </outline>
</glyph>
